<svg width="60" height="60" viewBox="0 0 60 60" fill="none" xmlns="http://www.w3.org/2000/svg">
<rect width="60" height="60" rx="8" fill="#3749A6"/>
<path d="M43.2429 28.0761V21.6305C43.2429 17.4181 39.7662 14 35.4887 14H24.5247C20.2537 14 16.7705 17.4246 16.7705 21.6305V28.0761C15.1428 28.8639 14.0034 30.5176 14.0034 32.4448V46H24.6679V44.6653H35.3324V46H45.9969V32.4448C46.0099 30.5176 44.8706 28.8574 43.2429 28.0761ZM22.005 34.0008V36.6702V43.3371H16.6728V32.4448C16.6728 31.4031 17.402 30.5306 18.3786 30.3093H18.3916C18.5609 30.2702 18.7172 30.2507 18.8669 30.2507H19.8044C21.0154 30.2507 22.005 31.2338 22.005 32.4513V34.0008ZM35.3389 36.6637H24.6744V33.9943H35.3389V36.6637ZM38.0083 43.3306V36.6637V33.9943V32.4383C38.0083 31.2273 38.9914 30.2376 40.2089 30.2376H41.1399C41.2897 30.2376 41.4459 30.2572 41.6152 30.2962H41.6282C42.6048 30.5176 43.334 31.39 43.334 32.4317V43.3306H38.0083Z" fill="white"/>
</svg>
