<svg width="722" height="577" viewBox="0 0 722 577" fill="none" xmlns="http://www.w3.org/2000/svg">
<path d="M176.968 75.6735H206.005V69.1396" stroke="#4E4E4E"/>
<path d="M204.828 65.2966C201.297 57.6097 190.702 42.9277 176.576 45.695" stroke="#4E4E4E" stroke-dasharray="8 8"/>
<path d="M422.156 38.687C420.928 42.3674 421.653 47.1324 421.653 51.453C422.323 55.7735 424.854 56.8581 427.069 56.8581C429.283 56.8581 438.159 57.0714 440.374 56.8581C442.588 56.6447 444.058 55.3468 444.803 51.8797C445.547 48.4126 445.547 39.5404 442.83 35.6466C440.132 31.7528 436.671 31.0416 431.497 31.2905C426.324 31.5394 423.365 34.9887 422.137 38.6692L422.156 38.687Z" stroke="#2C2C2C" stroke-width="0.75" stroke-linejoin="round"/>
<path d="M422.339 51.9507V39.2203C422.339 38.1357 421.409 37.2645 420.274 37.2645C419.138 37.2645 418.208 38.1357 418.208 39.2203V51.9507C418.208 53.0175 419.138 53.9065 420.274 53.9065C421.409 53.9065 422.339 53.0353 422.339 51.9507ZM422.153 31.4327C421.167 32.375 421.167 34.4731 423.381 34.4731C425.596 34.4731 426.34 32.8373 432.742 32.8373C439.143 32.8373 443.832 35.6288 444.819 33.5307C445.805 31.4327 440.632 27.4678 432.742 27.6811C424.87 27.9478 423.084 30.4904 422.153 31.4327ZM447.033 51.9507V39.2203C447.033 38.1357 446.103 37.2645 444.967 37.2645C443.832 37.2645 442.902 38.1357 442.902 39.2203V51.9507C442.902 53.0175 443.832 53.9065 444.967 53.9065C446.103 53.9065 447.033 53.0353 447.033 51.9507Z" stroke="#2C2C2C" stroke-width="0.75" stroke-linejoin="round"/>
<path d="M422.156 105.184C420.928 101.504 421.653 96.7386 421.653 92.4181C422.323 88.0798 424.854 86.9952 427.069 86.9952C429.283 86.9952 438.159 86.7819 440.374 86.9952C442.588 87.2264 444.058 88.5243 444.803 91.9736C445.547 95.4407 445.547 104.313 442.83 108.207C440.132 112.1 436.671 112.794 431.497 112.563C426.324 112.332 423.365 108.865 422.137 105.184H422.156Z" stroke="#2C2C2C" stroke-width="0.75" stroke-linejoin="round"/>
<path d="M422.339 91.9197V104.65C422.339 105.735 421.409 106.606 420.274 106.606C419.138 106.606 418.208 105.735 418.208 104.65V91.9197C418.208 90.8351 419.138 89.9639 420.274 89.9639C421.409 89.9639 422.339 90.8351 422.339 91.9197ZM422.153 112.438C421.167 111.513 421.167 109.397 423.381 109.397C425.596 109.397 426.34 111.033 432.742 111.033C439.143 111.033 443.832 108.242 444.819 110.34C445.805 112.438 440.632 116.403 432.742 116.189C424.87 115.94 423.084 113.362 422.153 112.438ZM447.033 91.9197V104.65C447.033 105.735 446.103 106.606 444.967 106.606C443.832 106.606 442.902 105.735 442.902 104.65V91.9197C442.902 90.8351 443.832 89.9639 444.967 89.9639C446.103 89.9639 447.033 90.8351 447.033 91.9197Z" stroke="#2C2C2C" stroke-width="0.75" stroke-linejoin="round"/>
<path d="M469.589 62.8496C465.7 61.6762 460.676 62.3874 456.098 62.3874C451.52 63.0097 450.385 65.4277 450.385 67.5258C450.385 69.6238 450.143 78.0159 450.385 80.1317C450.608 82.2298 451.985 83.6344 455.633 84.3278C459.28 85.0212 468.659 85.0212 472.771 82.4609C476.884 79.8828 477.628 76.6291 477.368 71.7218C477.107 66.8146 473.46 64.0231 469.571 62.8496H469.589Z" stroke="#2C2C2C" stroke-width="0.75" stroke-linejoin="round"/>
<path d="M455.575 63.01H469.03C470.165 63.01 471.095 62.1388 471.095 61.0542C471.095 59.9696 470.165 59.1162 469.03 59.1162H455.575C454.44 59.1162 453.51 59.9874 453.51 61.0542C453.51 62.121 454.44 63.01 455.575 63.01ZM477.236 62.85C476.25 61.9077 474.035 61.9077 474.035 64.0235C474.035 66.1393 475.766 66.8149 475.766 72.8957C475.766 78.9764 472.807 83.3858 475.022 84.3282C477.236 85.2705 481.423 80.3632 481.2 72.8957C480.939 65.4281 478.241 63.7568 477.255 62.8678L477.236 62.85ZM455.575 86.4084H469.03C470.165 86.4084 471.095 85.5372 471.095 84.4526C471.095 83.3681 470.165 82.4968 469.03 82.4968H455.575C454.44 82.4968 453.51 83.3681 453.51 84.4526C453.51 85.5372 454.44 86.4084 455.575 86.4084Z" stroke="#2C2C2C" stroke-width="0.75" stroke-linejoin="round"/>
<path d="M397.871 62.8496C401.76 61.6762 406.784 62.3874 411.362 62.3874C415.94 63.0097 417.075 65.4277 417.075 67.5258C417.075 69.6238 417.298 78.0159 417.075 80.1317C416.852 82.2298 415.475 83.6344 411.827 84.3278C408.161 85.0212 398.801 85.0212 394.67 82.4609C390.558 79.8828 389.832 76.6291 390.074 71.7218C390.334 66.8146 393.982 64.0231 397.871 62.8496Z" stroke="#20DB26" stroke-width="0.75" stroke-linejoin="round"/>
<path d="M411.863 63.01H398.409C397.274 63.01 396.344 62.1388 396.344 61.0542C396.344 59.9696 397.274 59.1162 398.409 59.1162H411.863C412.999 59.1162 413.929 59.9874 413.929 61.0542C413.929 62.121 412.999 63.01 411.863 63.01ZM390.203 62.85C391.189 61.9077 393.403 61.9077 393.403 64.0235C393.403 66.1393 391.673 66.8149 391.673 72.8957C391.673 78.9764 394.632 83.3858 392.417 84.3282C390.203 85.2705 386.016 80.3632 386.239 72.8957C386.5 65.4281 389.216 63.7568 390.203 62.8678V62.85ZM411.863 86.4084H398.409C397.274 86.4084 396.344 85.5372 396.344 84.4526C396.344 83.3681 397.274 82.4968 398.409 82.4968H411.863C412.999 82.4968 413.929 83.3681 413.929 84.4526C413.929 85.5372 412.999 86.4084 411.863 86.4084Z" stroke="#20DB26" stroke-width="0.75" stroke-linejoin="round"/>
<path d="M463.822 43.8154H403.939V99.3777H463.822V43.8154Z" fill="#CACACA"/>
<path d="M618.564 360.767C617.335 364.447 618.061 369.213 618.061 373.533C618.731 377.854 621.262 378.938 623.476 378.938C625.691 378.938 634.567 379.151 636.782 378.938C638.996 378.725 640.466 377.427 641.21 373.96C641.955 370.493 641.955 361.62 639.238 357.727C636.54 353.833 633.078 353.122 627.905 353.371C622.732 353.619 619.773 357.069 618.545 360.749L618.564 360.767Z" stroke="#2C2C2C" stroke-width="0.75" stroke-linejoin="round"/>
<path d="M618.747 374.031V361.3C618.747 360.216 617.816 359.345 616.681 359.345C615.546 359.345 614.616 360.216 614.616 361.3V374.031C614.616 375.098 615.546 375.987 616.681 375.987C617.816 375.987 618.747 375.115 618.747 374.031ZM618.561 353.513C617.575 354.455 617.575 356.553 619.789 356.553C622.003 356.553 622.748 354.917 629.149 354.917C635.551 354.917 640.24 357.709 641.226 355.611C642.213 353.513 637.039 349.548 629.149 349.761C621.278 350.028 619.491 352.57 618.561 353.513ZM643.441 374.031V361.3C643.441 360.216 642.51 359.345 641.375 359.345C640.24 359.345 639.31 360.216 639.31 361.3V374.031C639.31 375.098 640.24 375.987 641.375 375.987C642.51 375.987 643.441 375.115 643.441 374.031Z" stroke="#2C2C2C" stroke-width="0.75" stroke-linejoin="round"/>
<path d="M618.564 427.264C617.335 423.584 618.061 418.819 618.061 414.498C618.731 410.16 621.262 409.075 623.476 409.075C625.691 409.075 634.567 408.862 636.782 409.075C638.996 409.306 640.466 410.604 641.21 414.054C641.955 417.521 641.955 426.393 639.238 430.287C636.54 434.181 633.078 434.874 627.905 434.643C622.732 434.412 619.773 430.945 618.545 427.264H618.564Z" stroke="#2C2C2C" stroke-width="0.75" stroke-linejoin="round"/>
<path d="M618.747 414V426.73C618.747 427.815 617.816 428.686 616.681 428.686C615.546 428.686 614.616 427.815 614.616 426.73V414C614.616 412.915 615.546 412.044 616.681 412.044C617.816 412.044 618.747 412.915 618.747 414ZM618.561 434.518C617.575 433.593 617.575 431.477 619.789 431.477C622.003 431.477 622.748 433.113 629.149 433.113C635.551 433.113 640.24 430.322 641.226 432.42C642.213 434.518 637.039 438.483 629.149 438.269C621.278 438.02 619.491 435.442 618.561 434.518ZM643.441 414V426.73C643.441 427.815 642.51 428.686 641.375 428.686C640.24 428.686 639.31 427.815 639.31 426.73V414C639.31 412.915 640.24 412.044 641.375 412.044C642.51 412.044 643.441 412.915 643.441 414Z" stroke="#2C2C2C" stroke-width="0.75" stroke-linejoin="round"/>
<path d="M665.996 384.93C662.107 383.756 657.083 384.467 652.505 384.467C647.927 385.09 646.792 387.508 646.792 389.606C646.792 391.704 646.55 400.096 646.792 402.212C647.015 404.31 648.392 405.714 652.04 406.408C655.687 407.101 665.066 407.101 669.178 404.541C673.291 401.963 674.035 398.709 673.775 393.802C673.514 388.895 669.867 386.103 665.978 384.93H665.996Z" stroke="#2C2C2C" stroke-width="0.75" stroke-linejoin="round"/>
<path d="M651.983 385.09H665.437C666.572 385.09 667.502 384.219 667.502 383.134C667.502 382.05 666.572 381.196 665.437 381.196H651.983C650.847 381.196 649.917 382.068 649.917 383.134C649.917 384.201 650.847 385.09 651.983 385.09ZM673.643 384.93C672.657 383.988 670.443 383.988 670.443 386.104C670.443 388.219 672.173 388.895 672.173 394.976C672.173 401.056 669.214 405.466 671.429 406.408C673.643 407.351 677.83 402.443 677.607 394.976C677.346 387.508 674.648 385.837 673.662 384.948L673.643 384.93ZM651.983 408.488H665.437C666.572 408.488 667.502 407.617 667.502 406.533C667.502 405.448 666.572 404.577 665.437 404.577H651.983C650.847 404.577 649.917 405.448 649.917 406.533C649.917 407.617 650.847 408.488 651.983 408.488Z" stroke="#2C2C2C" stroke-width="0.75" stroke-linejoin="round"/>
<path d="M594.278 384.93C598.167 383.756 603.191 384.467 607.769 384.467C612.347 385.09 613.482 387.508 613.482 389.606C613.482 391.704 613.705 400.096 613.482 402.212C613.259 404.31 611.881 405.714 608.234 406.408C604.568 407.101 595.208 407.101 591.077 404.541C586.964 401.963 586.239 398.709 586.48 393.802C586.741 388.895 590.388 386.103 594.278 384.93Z" stroke="#2C2C2C" stroke-width="0.75" stroke-linejoin="round"/>
<path d="M608.27 385.09H594.816C593.681 385.09 592.75 384.219 592.75 383.134C592.75 382.05 593.681 381.196 594.816 381.196H608.27C609.405 381.196 610.336 382.068 610.336 383.134C610.336 384.201 609.405 385.09 608.27 385.09ZM586.609 384.93C587.596 383.988 589.81 383.988 589.81 386.104C589.81 388.219 588.08 388.895 588.08 394.976C588.08 401.056 591.038 405.466 588.824 406.408C586.609 407.351 582.422 402.443 582.646 394.976C582.906 387.508 585.623 385.837 586.609 384.948V384.93ZM608.27 408.488H594.816C593.681 408.488 592.75 407.617 592.75 406.533C592.75 405.448 593.681 404.577 594.816 404.577H608.27C609.405 404.577 610.336 405.448 610.336 406.533C610.336 407.617 609.405 408.488 608.27 408.488Z" stroke="#2C2C2C" stroke-width="0.75" stroke-linejoin="round"/>
<path d="M519.025 406.525C515.136 405.352 510.112 406.063 505.534 406.063C500.956 406.685 499.821 409.104 499.821 411.202C499.821 413.3 499.598 421.692 499.821 423.808C500.044 425.906 501.421 427.31 505.069 428.004C508.735 428.697 518.095 428.697 522.226 426.137C526.338 423.559 527.064 420.305 526.822 415.398C526.562 410.49 522.914 407.699 519.025 406.525Z" stroke="#2C2C2C" stroke-width="0.75" stroke-linejoin="round"/>
<path d="M505.032 406.686H518.486C519.621 406.686 520.551 405.815 520.551 404.73C520.551 403.645 519.621 402.792 518.486 402.792H505.032C503.896 402.792 502.966 403.663 502.966 404.73C502.966 405.797 503.896 406.686 505.032 406.686ZM526.692 406.526C525.706 405.583 523.492 405.583 523.492 407.699C523.492 409.815 525.222 410.491 525.222 416.571C525.222 422.652 522.263 427.062 524.478 428.004C526.692 428.946 530.879 424.039 530.656 416.571C530.395 409.104 527.679 407.433 526.692 406.544V406.526ZM505.032 430.084H518.486C519.621 430.084 520.551 429.213 520.551 428.128C520.551 427.044 519.621 426.173 518.486 426.173H505.032C503.896 426.173 502.966 427.044 502.966 428.128C502.966 429.213 503.896 430.084 505.032 430.084Z" stroke="#2C2C2C" stroke-width="0.75" stroke-linejoin="round"/>
<path d="M519.025 453.416C515.135 452.243 510.111 452.954 505.533 452.954C500.956 453.576 499.82 455.994 499.82 458.092C499.82 460.19 499.597 468.582 499.82 470.698C500.044 472.796 501.421 474.201 505.068 474.894C508.734 475.588 518.094 475.588 522.225 473.027C526.338 470.449 527.064 467.196 526.822 462.288C526.561 457.381 522.914 454.59 519.025 453.416Z" stroke="#2C2C2C" stroke-width="0.75" stroke-linejoin="round"/>
<path d="M505.032 453.576H518.486C519.621 453.576 520.551 452.705 520.551 451.621C520.551 450.536 519.621 449.683 518.486 449.683H505.032C503.896 449.683 502.966 450.554 502.966 451.621C502.966 452.687 503.896 453.576 505.032 453.576ZM526.692 453.416C525.706 452.474 523.492 452.474 523.492 454.59C523.492 456.706 525.222 457.381 525.222 463.462C525.222 469.543 522.263 473.952 524.478 474.895C526.692 475.837 530.879 470.93 530.656 463.462C530.395 455.994 527.679 454.323 526.692 453.434V453.416ZM505.032 476.975H518.486C519.621 476.975 520.551 476.104 520.551 475.019C520.551 473.934 519.621 473.063 518.486 473.063H505.032C503.896 473.063 502.966 473.934 502.966 475.019C502.966 476.104 503.896 476.975 505.032 476.975Z" stroke="#2C2C2C" stroke-width="0.75" stroke-linejoin="round"/>
<path d="M519.024 500.307C515.134 499.133 510.11 499.844 505.532 499.844C500.955 500.467 499.819 502.885 499.819 504.983C499.819 507.081 499.596 515.473 499.819 517.589C500.043 519.687 501.42 521.091 505.067 521.785C508.733 522.478 518.093 522.478 522.224 519.918C526.337 517.34 527.063 514.086 526.821 509.179C526.56 504.272 522.913 501.48 519.024 500.307Z" stroke="#2C2C2C" stroke-width="0.75" stroke-linejoin="round"/>
<path d="M505.031 500.466H518.485C519.62 500.466 520.551 499.595 520.551 498.51C520.551 497.426 519.62 496.572 518.485 496.572H505.031C503.896 496.572 502.966 497.443 502.966 498.51C502.966 499.577 503.896 500.466 505.031 500.466ZM526.692 500.306C525.706 499.364 523.491 499.364 523.491 501.48C523.491 503.595 525.222 504.271 525.222 510.352C525.222 516.432 522.263 520.842 524.477 521.784C526.692 522.727 530.879 517.819 530.655 510.352C530.395 502.884 527.678 501.213 526.692 500.324V500.306ZM505.031 523.864H518.485C519.62 523.864 520.551 522.993 520.551 521.909C520.551 520.824 519.62 519.953 518.485 519.953H505.031C503.896 519.953 502.966 520.824 502.966 521.909C502.966 522.993 503.896 523.864 505.031 523.864Z" stroke="#2C2C2C" stroke-width="0.75" stroke-linejoin="round"/>
<path d="M660.23 365.896H600.347V421.458H660.23V365.896Z" fill="#CACACA"/>
<path d="M214.48 360.767C213.252 364.447 213.978 369.213 213.978 373.533C214.647 377.854 217.178 378.938 219.393 378.938C221.607 378.938 230.484 379.151 232.698 378.938C234.912 378.725 236.383 377.427 237.127 373.96C237.871 370.493 237.871 361.62 235.154 357.727C232.456 353.833 228.995 353.122 223.822 353.371C218.648 353.619 215.69 357.069 214.461 360.749L214.48 360.767Z" stroke="#2C2C2C" stroke-width="0.75" stroke-linejoin="round"/>
<path d="M214.663 374.031V361.3C214.663 360.216 213.733 359.345 212.598 359.345C211.463 359.345 210.532 360.216 210.532 361.3V374.031C210.532 375.098 211.463 375.987 212.598 375.987C213.733 375.987 214.663 375.115 214.663 374.031ZM214.477 353.513C213.491 354.455 213.491 356.553 215.706 356.553C217.92 356.553 218.664 354.917 225.066 354.917C231.467 354.917 236.157 357.709 237.143 355.611C238.129 353.513 232.956 349.548 225.066 349.761C217.194 350.028 215.408 352.57 214.477 353.513ZM239.357 374.031V361.3C239.357 360.216 238.427 359.345 237.292 359.345C236.157 359.345 235.226 360.216 235.226 361.3V374.031C235.226 375.098 236.157 375.987 237.292 375.987C238.427 375.987 239.357 375.115 239.357 374.031Z" stroke="#2C2C2C" stroke-width="0.75" stroke-linejoin="round"/>
<path d="M214.48 427.264C213.252 423.584 213.978 418.819 213.978 414.498C214.647 410.16 217.178 409.075 219.393 409.075C221.607 409.075 230.484 408.862 232.698 409.075C234.912 409.306 236.383 410.604 237.127 414.054C237.871 417.521 237.871 426.393 235.154 430.287C232.456 434.181 228.995 434.874 223.822 434.643C218.648 434.412 215.69 430.945 214.461 427.264H214.48Z" stroke="#2C2C2C" stroke-width="0.75" stroke-linejoin="round"/>
<path d="M214.663 414V426.73C214.663 427.815 213.733 428.686 212.598 428.686C211.463 428.686 210.532 427.815 210.532 426.73V414C210.532 412.915 211.463 412.044 212.598 412.044C213.733 412.044 214.663 412.915 214.663 414ZM214.477 434.518C213.491 433.593 213.491 431.477 215.706 431.477C217.92 431.477 218.664 433.113 225.066 433.113C231.467 433.113 236.157 430.322 237.143 432.42C238.129 434.518 232.956 438.483 225.066 438.269C217.194 438.02 215.408 435.442 214.477 434.518ZM239.357 414V426.73C239.357 427.815 238.427 428.686 237.292 428.686C236.157 428.686 235.226 427.815 235.226 426.73V414C235.226 412.915 236.157 412.044 237.292 412.044C238.427 412.044 239.357 412.915 239.357 414Z" stroke="#2C2C2C" stroke-width="0.75" stroke-linejoin="round"/>
<path d="M261.913 384.93C258.024 383.756 252.999 384.467 248.421 384.467C243.844 385.09 242.709 387.508 242.709 389.606C242.709 391.704 242.467 400.096 242.709 402.212C242.932 404.31 244.309 405.714 247.956 406.408C251.604 407.101 260.982 407.101 265.095 404.541C269.208 401.963 269.952 398.709 269.691 393.802C269.431 388.895 265.784 386.103 261.894 384.93H261.913Z" stroke="#2C2C2C" stroke-width="0.75" stroke-linejoin="round"/>
<path d="M247.899 385.09H261.353C262.488 385.09 263.419 384.219 263.419 383.134C263.419 382.05 262.488 381.196 261.353 381.196H247.899C246.764 381.196 245.833 382.068 245.833 383.134C245.833 384.201 246.764 385.09 247.899 385.09ZM269.56 384.93C268.573 383.988 266.359 383.988 266.359 386.104C266.359 388.219 268.09 388.895 268.09 394.976C268.09 401.056 265.131 405.466 267.345 406.408C269.56 407.351 273.747 402.443 273.523 394.976C273.263 387.508 270.565 385.837 269.578 384.948L269.56 384.93ZM247.899 408.488H261.353C262.488 408.488 263.419 407.617 263.419 406.533C263.419 405.448 262.488 404.577 261.353 404.577H247.899C246.764 404.577 245.833 405.448 245.833 406.533C245.833 407.617 246.764 408.488 247.899 408.488Z" stroke="#2C2C2C" stroke-width="0.75" stroke-linejoin="round"/>
<path d="M190.194 384.93C194.083 383.756 199.108 384.467 203.685 384.467C208.263 385.09 209.398 387.508 209.398 389.606C209.398 391.704 209.622 400.096 209.398 402.212C209.175 404.31 207.798 405.714 204.151 406.408C200.485 407.101 191.124 407.101 186.993 404.541C182.881 401.963 182.155 398.709 182.397 393.802C182.657 388.895 186.305 386.103 190.194 384.93Z" stroke="#2C2C2C" stroke-width="0.75" stroke-linejoin="round"/>
<path d="M204.187 385.09H190.733C189.598 385.09 188.667 384.219 188.667 383.134C188.667 382.05 189.598 381.196 190.733 381.196H204.187C205.322 381.196 206.253 382.068 206.253 383.134C206.253 384.201 205.322 385.09 204.187 385.09ZM182.526 384.93C183.513 383.988 185.727 383.988 185.727 386.104C185.727 388.219 183.997 388.895 183.997 394.976C183.997 401.056 186.955 405.466 184.741 406.408C182.526 407.351 178.339 402.443 178.563 394.976C178.823 387.508 181.54 385.837 182.526 384.948V384.93ZM204.187 408.488H190.733C189.598 408.488 188.667 407.617 188.667 406.533C188.667 405.448 189.598 404.577 190.733 404.577H204.187C205.322 404.577 206.253 405.448 206.253 406.533C206.253 407.617 205.322 408.488 204.187 408.488Z" stroke="#2C2C2C" stroke-width="0.75" stroke-linejoin="round"/>
<path d="M114.942 406.525C111.052 405.352 106.028 406.063 101.45 406.063C96.8725 406.685 95.7374 409.104 95.7374 411.202C95.7374 413.3 95.5141 421.692 95.7374 423.808C95.9607 425.906 97.3378 427.31 100.985 428.004C104.651 428.697 114.011 428.697 118.142 426.137C122.255 423.559 122.981 420.305 122.739 415.398C122.478 410.49 118.831 407.699 114.942 406.525Z" stroke="#2C2C2C" stroke-width="0.75" stroke-linejoin="round"/>
<path d="M100.949 406.686H114.403C115.538 406.686 116.468 405.815 116.468 404.73C116.468 403.645 115.538 402.792 114.403 402.792H100.949C99.8135 402.792 98.883 403.663 98.883 404.73C98.883 405.797 99.8135 406.686 100.949 406.686ZM122.609 406.526C121.623 405.583 119.409 405.583 119.409 407.699C119.409 409.815 121.139 410.491 121.139 416.571C121.139 422.652 118.18 427.062 120.395 428.004C122.609 428.946 126.796 424.039 126.573 416.571C126.312 409.104 123.596 407.433 122.609 406.544V406.526ZM100.949 430.084H114.403C115.538 430.084 116.468 429.213 116.468 428.128C116.468 427.044 115.538 426.173 114.403 426.173H100.949C99.8135 426.173 98.883 427.044 98.883 428.128C98.883 429.213 99.8135 430.084 100.949 430.084Z" stroke="#2C2C2C" stroke-width="0.75" stroke-linejoin="round"/>
<path d="M114.941 453.416C111.052 452.243 106.028 452.954 101.45 452.954C96.872 453.576 95.7369 455.994 95.7369 458.092C95.7369 460.19 95.5136 468.582 95.7369 470.698C95.9602 472.796 97.3373 474.201 100.985 474.894C104.651 475.588 114.011 475.588 118.142 473.027C122.254 470.449 122.98 467.196 122.738 462.288C122.478 457.381 118.83 454.59 114.941 453.416Z" stroke="#2C2C2C" stroke-width="0.75" stroke-linejoin="round"/>
<path d="M100.948 453.576H114.402C115.537 453.576 116.468 452.705 116.468 451.621C116.468 450.536 115.537 449.683 114.402 449.683H100.948C99.813 449.683 98.8825 450.554 98.8825 451.621C98.8825 452.687 99.813 453.576 100.948 453.576ZM122.609 453.416C121.623 452.474 119.408 452.474 119.408 454.59C119.408 456.706 121.139 457.381 121.139 463.462C121.139 469.543 118.18 473.952 120.394 474.895C122.609 475.837 126.796 470.93 126.572 463.462C126.312 455.994 123.595 454.323 122.609 453.434V453.416ZM100.948 476.975H114.402C115.537 476.975 116.468 476.104 116.468 475.019C116.468 473.934 115.537 473.063 114.402 473.063H100.948C99.813 473.063 98.8825 473.934 98.8825 475.019C98.8825 476.104 99.813 476.975 100.948 476.975Z" stroke="#2C2C2C" stroke-width="0.75" stroke-linejoin="round"/>
<path d="M114.941 500.307C111.051 499.133 106.027 499.844 101.449 499.844C96.8716 500.467 95.7364 502.885 95.7364 504.983C95.7364 507.081 95.5131 515.473 95.7364 517.589C95.9597 519.687 97.3368 521.091 100.984 521.785C104.65 522.478 114.01 522.478 118.141 519.918C122.254 517.34 122.98 514.086 122.738 509.179C122.477 504.272 118.83 501.48 114.941 500.307Z" stroke="#2C2C2C" stroke-width="0.75" stroke-linejoin="round"/>
<path d="M100.948 500.466H114.402C115.537 500.466 116.467 499.595 116.467 498.51C116.467 497.426 115.537 496.572 114.402 496.572H100.948C99.8125 496.572 98.8821 497.443 98.8821 498.51C98.8821 499.577 99.8125 500.466 100.948 500.466ZM122.608 500.306C121.622 499.364 119.408 499.364 119.408 501.48C119.408 503.595 121.138 504.271 121.138 510.352C121.138 516.432 118.179 520.842 120.394 521.784C122.608 522.727 126.795 517.819 126.572 510.352C126.311 502.884 123.595 501.213 122.608 500.324V500.306ZM100.948 523.864H114.402C115.537 523.864 116.467 522.993 116.467 521.909C116.467 520.824 115.537 519.953 114.402 519.953H100.948C99.8125 519.953 98.8821 520.824 98.8821 521.909C98.8821 522.993 99.8125 523.864 100.948 523.864Z" stroke="#2C2C2C" stroke-width="0.75" stroke-linejoin="round"/>
<path d="M256.146 365.896H196.263V421.458H256.146V365.896Z" fill="#CACACA"/>
<path d="M618.563 481.452C617.335 485.132 618.061 489.897 618.061 494.218C618.731 498.538 621.261 499.623 623.476 499.623C625.69 499.623 634.567 499.836 636.781 499.623C638.995 499.409 640.466 498.111 641.21 494.644C641.954 491.177 641.954 482.305 639.237 478.411C636.539 474.517 633.078 473.806 627.905 474.055C622.731 474.304 619.773 477.753 618.544 481.434L618.563 481.452Z" stroke="#2C2C2C" stroke-width="0.75" stroke-linejoin="round"/>
<path d="M618.746 494.715V481.985C618.746 480.9 617.816 480.029 616.681 480.029C615.546 480.029 614.615 480.9 614.615 481.985V494.715C614.615 495.782 615.546 496.671 616.681 496.671C617.816 496.671 618.746 495.8 618.746 494.715ZM618.56 474.197C617.574 475.14 617.574 477.238 619.789 477.238C622.003 477.238 622.747 475.602 629.149 475.602C635.55 475.602 640.24 478.393 641.226 476.295C642.212 474.197 637.039 470.232 629.149 470.446C621.277 470.712 619.491 473.255 618.56 474.197ZM643.44 494.715V481.985C643.44 480.9 642.51 480.029 641.375 480.029C640.24 480.029 639.309 480.9 639.309 481.985V494.715C639.309 495.782 640.24 496.671 641.375 496.671C642.51 496.671 643.44 495.8 643.44 494.715Z" stroke="#2C2C2C" stroke-width="0.75" stroke-linejoin="round"/>
<path d="M618.563 547.949C617.335 544.268 618.061 539.503 618.061 535.183C618.731 530.844 621.261 529.76 623.476 529.76C625.69 529.76 634.567 529.547 636.781 529.76C638.995 529.991 640.466 531.289 641.21 534.738C641.954 538.205 641.954 547.078 639.237 550.971C636.539 554.865 633.078 555.559 627.905 555.327C622.731 555.096 619.773 551.629 618.544 547.949H618.563Z" stroke="#2C2C2C" stroke-width="0.75" stroke-linejoin="round"/>
<path d="M618.746 534.684V547.415C618.746 548.499 617.816 549.371 616.681 549.371C615.546 549.371 614.615 548.499 614.615 547.415V534.684C614.615 533.6 615.546 532.729 616.681 532.729C617.816 532.729 618.746 533.6 618.746 534.684ZM618.56 555.202C617.574 554.278 617.574 552.162 619.789 552.162C622.003 552.162 622.747 553.798 629.149 553.798C635.55 553.798 640.24 551.006 641.226 553.104C642.212 555.202 637.039 559.167 629.149 558.954C621.277 558.705 619.491 556.127 618.56 555.202ZM643.44 534.684V547.415C643.44 548.499 642.51 549.371 641.375 549.371C640.24 549.371 639.309 548.499 639.309 547.415V534.684C639.309 533.6 640.24 532.729 641.375 532.729C642.51 532.729 643.44 533.6 643.44 534.684Z" stroke="#2C2C2C" stroke-width="0.75" stroke-linejoin="round"/>
<path d="M665.996 505.614C662.107 504.441 657.083 505.152 652.505 505.152C647.927 505.774 646.792 508.192 646.792 510.29C646.792 512.388 646.55 520.781 646.792 522.896C647.015 524.994 648.392 526.399 652.04 527.092C655.687 527.786 665.066 527.786 669.178 525.226C673.291 522.647 674.035 519.394 673.775 514.486C673.514 509.579 669.867 506.788 665.978 505.614H665.996Z" stroke="#2C2C2C" stroke-width="0.75" stroke-linejoin="round"/>
<path d="M651.982 505.775H665.436C666.571 505.775 667.502 504.903 667.502 503.819C667.502 502.734 666.571 501.881 665.436 501.881H651.982C650.847 501.881 649.917 502.752 649.917 503.819C649.917 504.886 650.847 505.775 651.982 505.775ZM673.643 505.615C672.656 504.672 670.442 504.672 670.442 506.788C670.442 508.904 672.173 509.58 672.173 515.66C672.173 521.741 669.214 526.15 671.428 527.093C673.643 528.035 677.83 523.128 677.606 515.66C677.346 508.193 674.648 506.521 673.661 505.632L673.643 505.615ZM651.982 529.173H665.436C666.571 529.173 667.502 528.302 667.502 527.217C667.502 526.133 666.571 525.261 665.436 525.261H651.982C650.847 525.261 649.917 526.133 649.917 527.217C649.917 528.302 650.847 529.173 651.982 529.173Z" stroke="#2C2C2C" stroke-width="0.75" stroke-linejoin="round"/>
<path d="M594.278 505.614C598.167 504.441 603.191 505.152 607.769 505.152C612.347 505.774 613.482 508.192 613.482 510.29C613.482 512.388 613.705 520.781 613.482 522.896C613.259 524.994 611.881 526.399 608.234 527.092C604.568 527.786 595.208 527.786 591.077 525.226C586.964 522.647 586.239 519.394 586.48 514.486C586.741 509.579 590.388 506.788 594.278 505.614Z" stroke="#2C2C2C" stroke-width="0.75" stroke-linejoin="round"/>
<path d="M608.27 505.775H594.816C593.681 505.775 592.75 504.903 592.75 503.819C592.75 502.734 593.681 501.881 594.816 501.881H608.27C609.405 501.881 610.336 502.752 610.336 503.819C610.336 504.886 609.405 505.775 608.27 505.775ZM586.609 505.615C587.596 504.672 589.81 504.672 589.81 506.788C589.81 508.904 588.08 509.58 588.08 515.66C588.08 521.741 591.038 526.15 588.824 527.093C586.609 528.035 582.422 523.128 582.646 515.66C582.906 508.193 585.623 506.521 586.609 505.632V505.615ZM608.27 529.173H594.816C593.681 529.173 592.75 528.302 592.75 527.217C592.75 526.133 593.681 525.261 594.816 525.261H608.27C609.405 525.261 610.336 526.133 610.336 527.217C610.336 528.302 609.405 529.173 608.27 529.173Z" stroke="#2C2C2C" stroke-width="0.75" stroke-linejoin="round"/>
<path d="M660.229 486.58H600.346V542.142H660.229V486.58Z" fill="#CACACA"/>
<path d="M214.48 481.452C213.252 485.132 213.978 489.897 213.978 494.218C214.647 498.538 217.178 499.623 219.393 499.623C221.607 499.623 230.484 499.836 232.698 499.623C234.912 499.409 236.383 498.111 237.127 494.644C237.871 491.177 237.871 482.305 235.154 478.411C232.456 474.517 228.995 473.806 223.822 474.055C218.648 474.304 215.69 477.753 214.461 481.434L214.48 481.452Z" stroke="#2C2C2C" stroke-width="0.75" stroke-linejoin="round"/>
<path d="M214.663 494.715V481.985C214.663 480.9 213.732 480.029 212.597 480.029C211.462 480.029 210.532 480.9 210.532 481.985V494.715C210.532 495.782 211.462 496.671 212.597 496.671C213.732 496.671 214.663 495.8 214.663 494.715ZM214.477 474.197C213.491 475.14 213.491 477.238 215.705 477.238C217.919 477.238 218.664 475.602 225.065 475.602C231.467 475.602 236.156 478.393 237.142 476.295C238.129 474.197 232.955 470.232 225.065 470.446C217.194 470.712 215.407 473.255 214.477 474.197ZM239.357 494.715V481.985C239.357 480.9 238.426 480.029 237.291 480.029C236.156 480.029 235.226 480.9 235.226 481.985V494.715C235.226 495.782 236.156 496.671 237.291 496.671C238.426 496.671 239.357 495.8 239.357 494.715Z" stroke="#2C2C2C" stroke-width="0.75" stroke-linejoin="round"/>
<path d="M214.48 547.949C213.252 544.268 213.978 539.503 213.978 535.183C214.647 530.844 217.178 529.76 219.393 529.76C221.607 529.76 230.484 529.547 232.698 529.76C234.912 529.991 236.383 531.289 237.127 534.738C237.871 538.205 237.871 547.078 235.154 550.971C232.456 554.865 228.995 555.559 223.822 555.327C218.648 555.096 215.69 551.629 214.461 547.949H214.48Z" stroke="#2C2C2C" stroke-width="0.75" stroke-linejoin="round"/>
<path d="M214.663 534.684V547.415C214.663 548.499 213.732 549.371 212.597 549.371C211.462 549.371 210.532 548.499 210.532 547.415V534.684C210.532 533.6 211.462 532.729 212.597 532.729C213.732 532.729 214.663 533.6 214.663 534.684ZM214.477 555.202C213.491 554.278 213.491 552.162 215.705 552.162C217.919 552.162 218.664 553.798 225.065 553.798C231.467 553.798 236.156 551.006 237.142 553.104C238.129 555.202 232.955 559.167 225.065 558.954C217.194 558.705 215.407 556.127 214.477 555.202ZM239.357 534.684V547.415C239.357 548.499 238.426 549.371 237.291 549.371C236.156 549.371 235.226 548.499 235.226 547.415V534.684C235.226 533.6 236.156 532.729 237.291 532.729C238.426 532.729 239.357 533.6 239.357 534.684Z" stroke="#2C2C2C" stroke-width="0.75" stroke-linejoin="round"/>
<path d="M261.913 505.614C258.024 504.441 252.999 505.152 248.421 505.152C243.844 505.774 242.709 508.192 242.709 510.29C242.709 512.388 242.467 520.781 242.709 522.896C242.932 524.994 244.309 526.399 247.956 527.092C251.604 527.786 260.982 527.786 265.095 525.226C269.208 522.647 269.952 519.394 269.691 514.486C269.431 509.579 265.784 506.788 261.894 505.614H261.913Z" stroke="#2C2C2C" stroke-width="0.75" stroke-linejoin="round"/>
<path d="M247.899 505.775H261.353C262.488 505.775 263.419 504.903 263.419 503.819C263.419 502.734 262.488 501.881 261.353 501.881H247.899C246.764 501.881 245.833 502.752 245.833 503.819C245.833 504.886 246.764 505.775 247.899 505.775ZM269.56 505.615C268.573 504.672 266.359 504.672 266.359 506.788C266.359 508.904 268.09 509.58 268.09 515.66C268.09 521.741 265.131 526.15 267.345 527.093C269.56 528.035 273.747 523.128 273.523 515.66C273.263 508.193 270.565 506.521 269.578 505.632L269.56 505.615ZM247.899 529.173H261.353C262.488 529.173 263.419 528.302 263.419 527.217C263.419 526.133 262.488 525.261 261.353 525.261H247.899C246.764 525.261 245.833 526.133 245.833 527.217C245.833 528.302 246.764 529.173 247.899 529.173Z" stroke="#2C2C2C" stroke-width="0.75" stroke-linejoin="round"/>
<path d="M190.195 505.614C194.084 504.441 199.108 505.152 203.686 505.152C208.264 505.774 209.399 508.192 209.399 510.29C209.399 512.388 209.622 520.781 209.399 522.896C209.176 524.994 207.798 526.399 204.151 527.092C200.485 527.786 191.125 527.786 186.994 525.226C182.881 522.647 182.156 519.394 182.397 514.486C182.658 509.579 186.305 506.788 190.195 505.614Z" stroke="#2C2C2C" stroke-width="0.75" stroke-linejoin="round"/>
<path d="M204.188 505.775H190.733C189.598 505.775 188.668 504.903 188.668 503.819C188.668 502.734 189.598 501.881 190.733 501.881H204.188C205.323 501.881 206.253 502.752 206.253 503.819C206.253 504.886 205.323 505.775 204.188 505.775ZM182.527 505.615C183.513 504.672 185.728 504.672 185.728 506.788C185.728 508.904 183.997 509.58 183.997 515.66C183.997 521.741 186.956 526.15 184.741 527.093C182.527 528.035 178.34 523.128 178.563 515.66C178.824 508.193 181.541 506.521 182.527 505.632V505.615ZM204.188 529.173H190.733C189.598 529.173 188.668 528.302 188.668 527.217C188.668 526.133 189.598 525.261 190.733 525.261H204.188C205.323 525.261 206.253 526.133 206.253 527.217C206.253 528.302 205.323 529.173 204.188 529.173Z" stroke="#2C2C2C" stroke-width="0.75" stroke-linejoin="round"/>
<path d="M256.146 486.58H196.263V542.142H256.146V486.58Z" fill="#CACACA"/>
<rect x="650.727" y="51.6465" width="25.2565" height="4.55687" rx="0.75" transform="rotate(90 650.727 51.6465)" stroke="black" stroke-width="0.5"/>
<mask id="path-61-inside-1_1_4987" fill="white">
<path d="M645.918 53.3779L645.918 75.1719L633.771 75.1719C633.218 75.1719 632.771 74.7241 632.771 74.1719L632.771 54.3779C632.771 53.8256 633.218 53.3779 633.771 53.3779L645.918 53.3779Z"/>
</mask>
<path d="M645.918 53.3779L645.918 75.1719L645.918 53.3779ZM632.771 75.1719L632.771 53.3779L632.771 75.1719ZM632.771 54.3779C632.771 53.5495 633.442 52.8779 634.271 52.8779L645.918 52.8779L645.918 53.8779L633.771 53.8779C633.218 53.8779 632.771 54.1018 632.771 54.3779ZM645.918 75.6719L634.271 75.6719C633.442 75.6719 632.771 75.0003 632.771 74.1719C632.771 74.448 633.218 74.6719 633.771 74.6719L645.918 74.6719L645.918 75.6719Z" fill="black" mask="url(#path-61-inside-1_1_4987)"/>
<rect x="604.198" y="26.3848" width="25.7957" height="4.45317" rx="0.75" stroke="black" stroke-width="0.5"/>
<mask id="path-64-inside-2_1_4987" fill="white">
<path d="M605.972 31.0879H628.222V42.9661C628.222 43.5184 627.774 43.9661 627.222 43.9661H606.972C606.419 43.9661 605.972 43.5184 605.972 42.9661V31.0879Z"/>
</mask>
<path d="M605.972 31.0879H628.222H605.972ZM628.222 43.9661H605.972H628.222ZM606.972 43.9661C606.143 43.9661 605.472 43.2945 605.472 42.4661V31.0879H606.472V42.9661C606.472 43.5184 606.696 43.9661 606.972 43.9661ZM628.722 31.0879V42.4661C628.722 43.2945 628.05 43.9661 627.222 43.9661C627.498 43.9661 627.722 43.5184 627.722 42.9661V31.0879H628.722Z" fill="black" mask="url(#path-64-inside-2_1_4987)"/>
<rect x="0.25" y="-0.25" width="25.7957" height="4.45317" rx="0.75" transform="matrix(1 0 0 -1 603.948 318.862)" stroke="black" stroke-width="0.5"/>
<mask id="path-67-inside-3_1_4987" fill="white">
<path d="M605.972 314.409H628.222V302.531C628.222 301.979 627.774 301.531 627.222 301.531H606.972C606.419 301.531 605.972 301.979 605.972 302.531V314.409Z"/>
</mask>
<path d="M605.972 314.409H628.222H605.972ZM628.222 301.531H605.972H628.222ZM606.972 301.531C606.143 301.531 605.472 302.203 605.472 303.031V314.409H606.472V302.531C606.472 301.979 606.696 301.531 606.972 301.531ZM628.722 314.409V303.031C628.722 302.203 628.05 301.531 627.222 301.531C627.498 301.531 627.722 301.979 627.722 302.531V314.409H628.722Z" fill="black" mask="url(#path-67-inside-3_1_4987)"/>
<rect x="650.727" y="132.383" width="25.2565" height="4.55687" rx="0.75" transform="rotate(90 650.727 132.383)" stroke="black" stroke-width="0.5"/>
<mask id="path-70-inside-4_1_4987" fill="white">
<path d="M645.918 134.114L645.918 155.908L633.771 155.908C633.218 155.908 632.771 155.46 632.771 154.908L632.771 135.114C632.771 134.562 633.218 134.114 633.771 134.114L645.918 134.114Z"/>
</mask>
<path d="M645.918 134.114L645.918 155.908L645.918 134.114ZM632.771 155.908L632.771 134.114L632.771 155.908ZM632.771 135.114C632.771 134.286 633.442 133.614 634.271 133.614L645.918 133.614L645.918 134.614L633.771 134.614C633.218 134.614 632.771 134.838 632.771 135.114ZM645.918 156.408L634.271 156.408C633.442 156.408 632.771 155.737 632.771 154.908C632.771 155.184 633.218 155.408 633.771 155.408L645.918 155.408L645.918 156.408Z" fill="black" mask="url(#path-70-inside-4_1_4987)"/>
<rect x="650.727" y="213.119" width="25.2565" height="4.55687" rx="0.75" transform="rotate(90 650.727 213.119)" stroke="black" stroke-width="0.5"/>
<mask id="path-73-inside-5_1_4987" fill="white">
<path d="M645.918 214.851L645.918 236.645L633.771 236.645C633.218 236.645 632.771 236.197 632.771 235.645L632.771 215.851C632.771 215.298 633.218 214.851 633.771 214.851L645.918 214.851Z"/>
</mask>
<path d="M645.918 214.851L645.918 236.645L645.918 214.851ZM632.771 236.645L632.771 214.851L632.771 236.645ZM632.771 215.851C632.771 215.022 633.442 214.351 634.271 214.351L645.918 214.351L645.918 215.351L633.771 215.351C633.218 215.351 632.771 215.574 632.771 215.851ZM645.918 237.145L634.271 237.145C633.442 237.145 632.771 236.473 632.771 235.645C632.771 235.921 633.218 236.145 633.771 236.145L645.918 236.145L645.918 237.145Z" fill="black" mask="url(#path-73-inside-5_1_4987)"/>
<rect x="0.25" y="0.25" width="25.2565" height="4.55687" rx="0.75" transform="matrix(-4.46266e-08 1 1 4.2815e-08 579.169 51.3965)" stroke="black" stroke-width="0.5"/>
<mask id="path-76-inside-6_1_4987" fill="white">
<path d="M584.227 53.3779L584.227 75.1719L596.375 75.1719C596.927 75.1719 597.375 74.7241 597.375 74.1719L597.375 54.3779C597.375 53.8256 596.927 53.3779 596.375 53.3779L584.227 53.3779Z"/>
</mask>
<path d="M584.227 53.3779L584.227 75.1719L584.227 53.3779ZM597.375 75.1719L597.375 53.3779L597.375 75.1719ZM597.375 54.3779C597.375 53.5495 596.703 52.8779 595.875 52.8779L584.227 52.8779L584.227 53.8779L596.375 53.8779C596.927 53.8779 597.375 54.1018 597.375 54.3779ZM584.227 75.6719L595.875 75.6719C596.703 75.6719 597.375 75.0003 597.375 74.1719C597.375 74.448 596.927 74.6719 596.375 74.6719L584.227 74.6719L584.227 75.6719Z" fill="black" mask="url(#path-76-inside-6_1_4987)"/>
<rect x="0.25" y="0.25" width="25.2565" height="4.55687" rx="0.75" transform="matrix(-4.46266e-08 1 1 4.2815e-08 579.169 135.104)" stroke="black" stroke-width="0.5"/>
<mask id="path-79-inside-7_1_4987" fill="white">
<path d="M584.227 137.086L584.227 158.88L596.375 158.88C596.927 158.88 597.375 158.432 597.375 157.88L597.375 138.086C597.375 137.534 596.927 137.086 596.375 137.086L584.227 137.086Z"/>
</mask>
<path d="M584.227 137.086L584.227 158.88L584.227 137.086ZM597.375 158.88L597.375 137.086L597.375 158.88ZM597.375 138.086C597.375 137.258 596.703 136.586 595.875 136.586L584.227 136.586L584.227 137.586L596.375 137.586C596.927 137.586 597.375 137.81 597.375 138.086ZM584.227 159.38L595.875 159.38C596.703 159.38 597.375 158.708 597.375 157.88C597.375 158.156 596.927 158.38 596.375 158.38L584.227 158.38L584.227 159.38Z" fill="black" mask="url(#path-79-inside-7_1_4987)"/>
<rect x="0.25" y="0.25" width="25.2565" height="4.55687" rx="0.75" transform="matrix(-4.46266e-08 1 1 4.2815e-08 579.169 216.832)" stroke="black" stroke-width="0.5"/>
<mask id="path-82-inside-8_1_4987" fill="white">
<path d="M584.227 218.813L584.227 240.607L596.375 240.607C596.927 240.607 597.375 240.16 597.375 239.607L597.375 219.813C597.375 219.261 596.927 218.813 596.375 218.813L584.227 218.813Z"/>
</mask>
<path d="M584.227 218.813L584.227 240.607L584.227 218.813ZM597.375 240.607L597.375 218.813L597.375 240.607ZM597.375 219.813C597.375 218.985 596.703 218.313 595.875 218.313L584.227 218.313L584.227 219.313L596.375 219.313C596.927 219.313 597.375 219.537 597.375 219.813ZM584.227 241.107L595.875 241.107C596.703 241.107 597.375 240.436 597.375 239.607C597.375 239.884 596.927 240.107 596.375 240.107L584.227 240.107L584.227 241.107Z" fill="black" mask="url(#path-82-inside-8_1_4987)"/>
<rect x="650.727" y="79.3838" width="25.2565" height="4.55687" rx="0.75" transform="rotate(90 650.727 79.3838)" stroke="black" stroke-width="0.5"/>
<mask id="path-85-inside-9_1_4987" fill="white">
<path d="M645.918 81.1152L645.918 102.909L633.771 102.909C633.218 102.909 632.771 102.461 632.771 101.909L632.771 82.1152C632.771 81.5629 633.218 81.1152 633.771 81.1152L645.918 81.1152Z"/>
</mask>
<path d="M645.918 81.1152L645.918 102.909L645.918 81.1152ZM632.771 102.909L632.771 81.1152L632.771 102.909ZM632.771 82.1152C632.771 81.2868 633.442 80.6152 634.271 80.6152L645.918 80.6152L645.918 81.6152L633.771 81.6152C633.218 81.6152 632.771 81.8391 632.771 82.1152ZM645.918 103.409L634.271 103.409C633.442 103.409 632.771 102.738 632.771 101.909C632.771 102.185 633.218 102.409 633.771 102.409L645.918 102.409L645.918 103.409Z" fill="black" mask="url(#path-85-inside-9_1_4987)"/>
<rect x="650.727" y="160.121" width="25.2565" height="4.55687" rx="0.75" transform="rotate(90 650.727 160.121)" stroke="black" stroke-width="0.5"/>
<mask id="path-88-inside-10_1_4987" fill="white">
<path d="M645.918 161.853L645.918 183.646L633.771 183.646C633.218 183.646 632.771 183.199 632.771 182.646L632.771 162.853C632.771 162.3 633.218 161.853 633.771 161.853L645.918 161.853Z"/>
</mask>
<path d="M645.918 161.853L645.918 183.646L645.918 161.853ZM632.771 183.646L632.771 161.853L632.771 183.646ZM632.771 162.853C632.771 162.024 633.442 161.353 634.271 161.353L645.918 161.353L645.918 162.353L633.771 162.353C633.218 162.353 632.771 162.576 632.771 162.853ZM645.918 184.146L634.271 184.146C633.442 184.146 632.771 183.475 632.771 182.646C632.771 182.923 633.218 183.146 633.771 183.146L645.918 183.146L645.918 184.146Z" fill="black" mask="url(#path-88-inside-10_1_4987)"/>
<rect x="650.727" y="240.857" width="25.2565" height="4.55687" rx="0.75" transform="rotate(90 650.727 240.857)" stroke="black" stroke-width="0.5"/>
<mask id="path-91-inside-11_1_4987" fill="white">
<path d="M645.918 242.589L645.918 264.383L633.771 264.383C633.218 264.383 632.771 263.935 632.771 263.383L632.771 243.589C632.771 243.037 633.218 242.589 633.771 242.589L645.918 242.589Z"/>
</mask>
<path d="M645.918 242.589L645.918 264.383L645.918 242.589ZM632.771 264.383L632.771 242.589L632.771 264.383ZM632.771 243.589C632.771 242.76 633.442 242.089 634.271 242.089L645.918 242.089L645.918 243.089L633.771 243.089C633.218 243.089 632.771 243.313 632.771 243.589ZM645.918 264.883L634.271 264.883C633.442 264.883 632.771 264.211 632.771 263.383C632.771 263.659 633.218 263.883 633.771 263.883L645.918 263.883L645.918 264.883Z" fill="black" mask="url(#path-91-inside-11_1_4987)"/>
<rect x="0.25" y="0.25" width="25.2565" height="4.55687" rx="0.75" transform="matrix(-4.46266e-08 1 1 4.2815e-08 579.169 80.124)" stroke="black" stroke-width="0.5"/>
<mask id="path-94-inside-12_1_4987" fill="white">
<path d="M584.227 82.1055L584.227 103.899L596.375 103.899C596.927 103.899 597.375 103.452 597.375 102.899L597.375 83.1055C597.375 82.5532 596.927 82.1055 596.375 82.1055L584.227 82.1055Z"/>
</mask>
<path d="M584.227 82.1055L584.227 103.899L584.227 82.1055ZM597.375 103.899L597.375 82.1055L597.375 103.899ZM597.375 83.1055C597.375 82.277 596.703 81.6055 595.875 81.6055L584.227 81.6055L584.227 82.6055L596.375 82.6055C596.927 82.6055 597.375 82.8293 597.375 83.1055ZM584.227 104.399L595.875 104.399C596.703 104.399 597.375 103.728 597.375 102.899C597.375 103.176 596.927 103.399 596.375 103.399L584.227 103.399L584.227 104.399Z" fill="black" mask="url(#path-94-inside-12_1_4987)"/>
<rect x="0.25" y="0.25" width="25.2565" height="4.55687" rx="0.75" transform="matrix(-4.46266e-08 1 1 4.2815e-08 579.169 161.852)" stroke="black" stroke-width="0.5"/>
<mask id="path-97-inside-13_1_4987" fill="white">
<path d="M584.227 163.833L584.227 185.627L596.375 185.627C596.927 185.627 597.375 185.179 597.375 184.627L597.375 164.833C597.375 164.281 596.927 163.833 596.375 163.833L584.227 163.833Z"/>
</mask>
<path d="M584.227 163.833L584.227 185.627L584.227 163.833ZM597.375 185.627L597.375 163.833L597.375 185.627ZM597.375 164.833C597.375 164.005 596.703 163.333 595.875 163.333L584.227 163.333L584.227 164.333L596.375 164.333C596.927 164.333 597.375 164.557 597.375 164.833ZM584.227 186.127L595.875 186.127C596.703 186.127 597.375 185.455 597.375 184.627C597.375 184.903 596.927 185.127 596.375 185.127L584.227 185.127L584.227 186.127Z" fill="black" mask="url(#path-97-inside-13_1_4987)"/>
<rect x="0.25" y="0.25" width="25.2565" height="4.55687" rx="0.75" transform="matrix(-4.46266e-08 1 1 4.2815e-08 579.169 244.569)" stroke="black" stroke-width="0.5"/>
<mask id="path-100-inside-14_1_4987" fill="white">
<path d="M584.227 246.551L584.227 268.345L596.375 268.345C596.927 268.345 597.375 267.897 597.375 267.345L597.375 247.551C597.375 246.998 596.927 246.551 596.375 246.551L584.227 246.551Z"/>
</mask>
<path d="M584.227 246.551L584.227 268.345L584.227 246.551ZM597.375 268.345L597.375 246.551L597.375 268.345ZM597.375 247.551C597.375 246.722 596.703 246.051 595.875 246.051L584.227 246.051L584.227 247.051L596.375 247.051C596.927 247.051 597.375 247.275 597.375 247.551ZM584.227 268.845L595.875 268.845C596.703 268.845 597.375 268.173 597.375 267.345C597.375 267.621 596.927 267.845 596.375 267.845L584.227 267.845L584.227 268.845Z" fill="black" mask="url(#path-100-inside-14_1_4987)"/>
<rect x="650.727" y="107.121" width="25.2565" height="4.55687" rx="0.75" transform="rotate(90 650.727 107.121)" stroke="black" stroke-width="0.5"/>
<mask id="path-103-inside-15_1_4987" fill="white">
<path d="M645.918 108.853L645.918 130.646L633.771 130.646C633.218 130.646 632.771 130.199 632.771 129.646L632.771 109.853C632.771 109.3 633.218 108.853 633.771 108.853L645.918 108.853Z"/>
</mask>
<path d="M645.918 108.853L645.918 130.646L645.918 108.853ZM632.771 130.646L632.771 108.853L632.771 130.646ZM632.771 109.853C632.771 109.024 633.442 108.353 634.271 108.353L645.918 108.353L645.918 109.353L633.771 109.353C633.218 109.353 632.771 109.576 632.771 109.853ZM645.918 131.146L634.271 131.146C633.442 131.146 632.771 130.475 632.771 129.646C632.771 129.923 633.218 130.146 633.771 130.146L645.918 130.146L645.918 131.146Z" fill="black" mask="url(#path-103-inside-15_1_4987)"/>
<rect x="650.727" y="187.858" width="25.2565" height="4.55687" rx="0.75" transform="rotate(90 650.727 187.858)" stroke="black" stroke-width="0.5"/>
<mask id="path-106-inside-16_1_4987" fill="white">
<path d="M645.918 189.59L645.918 211.384L633.771 211.384C633.218 211.384 632.771 210.936 632.771 210.384L632.771 190.59C632.771 190.038 633.218 189.59 633.771 189.59L645.918 189.59Z"/>
</mask>
<path d="M645.918 189.59L645.918 211.384L645.918 189.59ZM632.771 211.384L632.771 189.59L632.771 211.384ZM632.771 190.59C632.771 189.761 633.442 189.09 634.271 189.09L645.918 189.09L645.918 190.09L633.771 190.09C633.218 190.09 632.771 190.314 632.771 190.59ZM645.918 211.884L634.271 211.884C633.442 211.884 632.771 211.212 632.771 210.384C632.771 210.66 633.218 210.884 633.771 210.884L645.918 210.884L645.918 211.884Z" fill="black" mask="url(#path-106-inside-16_1_4987)"/>
<rect x="650.727" y="268.595" width="25.2565" height="4.55687" rx="0.75" transform="rotate(90 650.727 268.595)" stroke="black" stroke-width="0.5"/>
<mask id="path-109-inside-17_1_4987" fill="white">
<path d="M645.918 270.326L645.918 292.12L633.771 292.12C633.218 292.12 632.771 291.672 632.771 291.12L632.771 271.326C632.771 270.774 633.218 270.326 633.771 270.326L645.918 270.326Z"/>
</mask>
<path d="M645.918 270.326L645.918 292.12L645.918 270.326ZM632.771 292.12L632.771 270.326L632.771 292.12ZM632.771 271.326C632.771 270.498 633.442 269.826 634.271 269.826L645.918 269.826L645.918 270.826L633.771 270.826C633.218 270.826 632.771 271.05 632.771 271.326ZM645.918 292.62L634.271 292.62C633.442 292.62 632.771 291.949 632.771 291.12C632.771 291.396 633.218 291.62 633.771 291.62L645.918 291.62L645.918 292.62Z" fill="black" mask="url(#path-109-inside-17_1_4987)"/>
<rect x="0.25" y="0.25" width="25.2565" height="4.55687" rx="0.75" transform="matrix(-4.46266e-08 1 1 4.2815e-08 579.169 107.862)" stroke="black" stroke-width="0.5"/>
<mask id="path-112-inside-18_1_4987" fill="white">
<path d="M584.227 109.844L584.227 131.638L596.375 131.638C596.927 131.638 597.375 131.19 597.375 130.638L597.375 110.844C597.375 110.291 596.927 109.844 596.375 109.844L584.227 109.844Z"/>
</mask>
<path d="M584.227 109.844L584.227 131.638L584.227 109.844ZM597.375 131.638L597.375 109.844L597.375 131.638ZM597.375 110.844C597.375 110.015 596.703 109.344 595.875 109.344L584.227 109.344L584.227 110.344L596.375 110.344C596.927 110.344 597.375 110.568 597.375 110.844ZM584.227 132.138L595.875 132.138C596.703 132.138 597.375 131.466 597.375 130.638C597.375 130.914 596.927 131.138 596.375 131.138L584.227 131.138L584.227 132.138Z" fill="black" mask="url(#path-112-inside-18_1_4987)"/>
<rect x="0.25" y="0.25" width="25.2565" height="4.55687" rx="0.75" transform="matrix(-4.46266e-08 1 1 4.2815e-08 579.169 189.59)" stroke="black" stroke-width="0.5"/>
<mask id="path-115-inside-19_1_4987" fill="white">
<path d="M584.227 191.57L584.227 213.364L596.375 213.364C596.927 213.364 597.375 212.917 597.375 212.364L597.375 192.57C597.375 192.018 596.927 191.57 596.375 191.57L584.227 191.57Z"/>
</mask>
<path d="M584.227 191.57L584.227 213.364L584.227 191.57ZM597.375 213.364L597.375 191.57L597.375 213.364ZM597.375 192.57C597.375 191.742 596.703 191.07 595.875 191.07L584.227 191.07L584.227 192.07L596.375 192.07C596.927 192.07 597.375 192.294 597.375 192.57ZM584.227 213.864L595.875 213.864C596.703 213.864 597.375 213.193 597.375 212.364C597.375 212.64 596.927 212.864 596.375 212.864L584.227 212.864L584.227 213.864Z" fill="black" mask="url(#path-115-inside-19_1_4987)"/>
<rect x="0.25" y="0.25" width="25.2565" height="4.55687" rx="0.75" transform="matrix(-4.46266e-08 1 1 4.2815e-08 579.169 272.308)" stroke="black" stroke-width="0.5"/>
<mask id="path-118-inside-20_1_4987" fill="white">
<path d="M584.227 274.289L584.227 296.083L596.375 296.083C596.927 296.083 597.375 295.635 597.375 295.083L597.375 275.289C597.375 274.737 596.927 274.289 596.375 274.289L584.227 274.289Z"/>
</mask>
<path d="M584.227 274.289L584.227 296.083L584.227 274.289ZM597.375 296.083L597.375 274.289L597.375 296.083ZM597.375 275.289C597.375 274.461 596.703 273.789 595.875 273.789L584.227 273.789L584.227 274.789L596.375 274.789C596.927 274.789 597.375 275.013 597.375 275.289ZM584.227 296.583L595.875 296.583C596.703 296.583 597.375 295.911 597.375 295.083C597.375 295.359 596.927 295.583 596.375 295.583L584.227 295.583L584.227 296.583Z" fill="black" mask="url(#path-118-inside-20_1_4987)"/>
<rect x="638.334" y="43.9658" width="257.565" height="42.4777" transform="rotate(90 638.334 43.9658)" fill="#CACACA"/>
<rect x="302.676" y="196.534" width="19.9043" height="5.05164" rx="0.75" transform="rotate(-180 302.676 196.534)" stroke="black" stroke-width="0.5"/>
<mask id="path-122-inside-21_1_4987" fill="white">
<path d="M301.356 191.232L284.091 191.232L284.091 177.798C284.091 177.246 284.539 176.798 285.091 176.798L300.356 176.798C300.909 176.798 301.356 177.246 301.356 177.798L301.356 191.232Z"/>
</mask>
<path d="M301.356 191.232L284.091 191.232L301.356 191.232ZM284.091 176.798L301.356 176.798L284.091 176.798ZM300.356 176.798C301.185 176.798 301.856 177.47 301.856 178.298L301.856 191.232L300.856 191.232L300.856 177.798C300.856 177.246 300.633 176.798 300.356 176.798ZM283.591 191.232L283.591 178.298C283.591 177.47 284.263 176.798 285.091 176.798C284.815 176.798 284.591 177.246 284.591 177.798L284.591 191.232L283.591 191.232Z" fill="black" mask="url(#path-122-inside-21_1_4987)"/>
<rect x="388.217" y="196.534" width="19.9043" height="5.05164" rx="0.75" transform="rotate(-180 388.217 196.534)" stroke="black" stroke-width="0.5"/>
<mask id="path-125-inside-22_1_4987" fill="white">
<path d="M386.897 191.232L369.632 191.232L369.632 177.798C369.632 177.246 370.08 176.798 370.632 176.798L385.897 176.798C386.45 176.798 386.897 177.246 386.897 177.798L386.897 191.232Z"/>
</mask>
<path d="M386.897 191.232L369.632 191.232L386.897 191.232ZM369.632 176.798L386.897 176.798L369.632 176.798ZM385.897 176.798C386.726 176.798 387.397 177.47 387.397 178.298L387.397 191.232L386.397 191.232L386.397 177.798C386.397 177.246 386.174 176.798 385.897 176.798ZM369.132 191.232L369.132 178.298C369.132 177.47 369.804 176.798 370.632 176.798C370.356 176.798 370.132 177.246 370.132 177.798L370.132 191.232L369.132 191.232Z" fill="black" mask="url(#path-125-inside-22_1_4987)"/>
<rect y="3.0752" width="18.05" height="16.9111" fill="#4E4E4E"/>
<rect x="703.95" y="3.07422" width="18.05" height="16.9111" fill="#4E4E4E"/>
<rect x="18.0498" y="3.07422" width="685.9" height="7.68688" fill="#404040"/>
<rect x="442.618" y="332.842" width="277.028" height="7.68688" fill="#404040"/>
<rect x="48.6567" y="332.842" width="277.028" height="7.68688" fill="#404040"/>
<rect x="442.618" y="567.292" width="277.028" height="9.22426" fill="#404040"/>
<rect x="48.6567" y="567.292" width="277.028" height="9.22426" fill="#404040"/>
<rect x="448.111" y="332.842" width="243.674" height="7.84781" transform="rotate(90 448.111 332.842)" fill="#4E4E4E"/>
<rect x="54.1499" y="332.842" width="243.674" height="7.84781" transform="rotate(90 54.1499 332.842)" fill="#4E4E4E"/>
<rect x="720.43" y="337.454" width="239.062" height="7.84781" transform="rotate(90 720.43 337.454)" fill="#4E4E4E"/>
<rect x="326.47" y="337.454" width="239.062" height="7.84781" transform="rotate(90 326.47 337.454)" fill="#4E4E4E"/>
<rect x="173.437" y="3.07422" width="3.13913" height="106.848" fill="#404040"/>
<rect x="173.437" y="114.534" width="3.13913" height="106.848" fill="#404040"/>
<path d="M25.1128 111.46L11.2183 19.9863M1.56934 19.9863L15.8498 111.46H21.6392L6.97276 19.9863H1.56934Z" stroke="black"/>
<path d="M40.0239 216.001L26.1294 114.534M16.4805 114.534L32.5685 216.001H36.5503L21.8839 114.534H16.4805Z" stroke="black"/>
<rect x="14.9106" y="109.154" width="161.665" height="5.38082" fill="#404040"/>
<rect x="32.1763" y="216.001" width="144.4" height="5.38082" fill="#404040"/>
<rect x="37.9194" y="34.0723" width="19.9043" height="3.34344" rx="0.75" stroke="#3749A6" stroke-width="0.5"/>
<mask id="path-145-inside-23_1_4987" fill="white">
<path d="M39.2393 37.666H56.5045V46.659C56.5045 47.2112 56.0568 47.659 55.5045 47.659H40.2393C39.687 47.659 39.2393 47.2112 39.2393 46.659V37.666Z"/>
</mask>
<path d="M39.2393 37.666H56.5045H39.2393ZM56.5045 47.659H39.2393H56.5045ZM40.2393 47.659C39.4108 47.659 38.7393 46.9874 38.7393 46.159V37.666H39.7393V46.659C39.7393 47.2112 39.9631 47.659 40.2393 47.659ZM57.0045 37.666V46.159C57.0045 46.9874 56.3329 47.659 55.5045 47.659C55.7806 47.659 56.0045 47.2112 56.0045 46.659V37.666H57.0045Z" fill="#3749A6" mask="url(#path-145-inside-23_1_4987)"/>
<rect x="0.25" y="-0.25" width="19.9043" height="3.34344" rx="0.75" transform="matrix(1 0 0 -1 38.5508 88.1592)" stroke="#20DB26" stroke-width="0.5"/>
<mask id="path-148-inside-24_1_4987" fill="white">
<path d="M40.1201 84.8154H57.3853V75.8225C57.3853 75.2702 56.9376 74.8225 56.3853 74.8225H41.1201C40.5678 74.8225 40.1201 75.2702 40.1201 75.8225V84.8154Z"/>
</mask>
<path d="M40.1201 84.8154H57.3853H40.1201ZM57.3853 74.8225H40.1201H57.3853ZM41.1201 74.8225C40.2917 74.8225 39.6201 75.4941 39.6201 76.3225V84.8154H40.6201V75.8225C40.6201 75.2702 40.844 74.8225 41.1201 74.8225ZM57.8853 84.8154V76.3225C57.8853 75.4941 57.2138 74.8225 56.3853 74.8225C56.6615 74.8225 56.8853 75.2702 56.8853 75.8225V84.8154H57.8853Z" fill="#20DB26" mask="url(#path-148-inside-24_1_4987)"/>
<rect x="59.8936" y="34.0723" width="19.9043" height="3.34344" rx="0.75" stroke="#20DB26" stroke-width="0.5"/>
<mask id="path-151-inside-25_1_4987" fill="white">
<path d="M61.2134 37.666H78.4786V46.659C78.4786 47.2112 78.0309 47.659 77.4786 47.659H62.2134C61.6611 47.659 61.2134 47.2112 61.2134 46.659V37.666Z"/>
</mask>
<path d="M61.2134 37.666H78.4786H61.2134ZM78.4786 47.659H61.2134H78.4786ZM62.2134 47.659C61.385 47.659 60.7134 46.9874 60.7134 46.159V37.666H61.7134V46.659C61.7134 47.2112 61.9372 47.659 62.2134 47.659ZM78.9786 37.666V46.159C78.9786 46.9874 78.307 47.659 77.4786 47.659C77.7547 47.659 77.9786 47.2112 77.9786 46.659V37.666H78.9786Z" fill="#20DB26" mask="url(#path-151-inside-25_1_4987)"/>
<rect x="0.25" y="-0.25" width="19.9043" height="3.34344" rx="0.75" transform="matrix(1 0 0 -1 60.5605 88.1592)" stroke="#20DB26" stroke-width="0.5"/>
<mask id="path-154-inside-26_1_4987" fill="white">
<path d="M62.1304 84.8154H79.3956V75.8225C79.3956 75.2702 78.9479 74.8225 78.3956 74.8225H63.1304C62.5781 74.8225 62.1304 75.2702 62.1304 75.8225V84.8154Z"/>
</mask>
<path d="M62.1304 84.8154H79.3956H62.1304ZM79.3956 74.8225H62.1304H79.3956ZM63.1304 74.8225C62.3019 74.8225 61.6304 75.4941 61.6304 76.3225V84.8154H62.6304V75.8225C62.6304 75.2702 62.8542 74.8225 63.1304 74.8225ZM79.8956 84.8154V76.3225C79.8956 75.4941 79.224 74.8225 78.3956 74.8225C78.6717 74.8225 78.8956 75.2702 78.8956 75.8225V84.8154H79.8956Z" fill="#20DB26" mask="url(#path-154-inside-26_1_4987)"/>
<rect x="81.8677" y="34.0723" width="19.9043" height="3.34344" rx="0.75" stroke="#3749A6" stroke-width="0.5"/>
<mask id="path-157-inside-27_1_4987" fill="white">
<path d="M83.1865 37.666H100.452V46.659C100.452 47.2112 100.004 47.659 99.4517 47.659H84.1865C83.6342 47.659 83.1865 47.2112 83.1865 46.659V37.666Z"/>
</mask>
<path d="M83.1865 37.666H100.452H83.1865ZM100.452 47.659H83.1865H100.452ZM84.1865 47.659C83.3581 47.659 82.6865 46.9874 82.6865 46.159V37.666H83.6865V46.659C83.6865 47.2112 83.9104 47.659 84.1865 47.659ZM100.952 37.666V46.159C100.952 46.9874 100.28 47.659 99.4517 47.659C99.7279 47.659 99.9517 47.2112 99.9517 46.659V37.666H100.952Z" fill="#3749A6" mask="url(#path-157-inside-27_1_4987)"/>
<rect x="141.796" y="49.4463" width="19.4859" height="3.42391" rx="0.75" transform="rotate(90 141.796 49.4463)" stroke="#3749A6" stroke-width="0.5"/>
<mask id="path-160-inside-28_1_4987" fill="white">
<path d="M138.122 50.7334L138.122 67.6445L128.919 67.6445C128.367 67.6445 127.919 67.1968 127.919 66.6445L127.919 51.7334C127.919 51.1811 128.367 50.7334 128.919 50.7334L138.122 50.7334Z"/>
</mask>
<path d="M138.122 50.7334L138.122 67.6445L138.122 50.7334ZM127.919 67.6445L127.919 50.7334L127.919 67.6445ZM127.919 51.7334C127.919 50.905 128.591 50.2334 129.419 50.2334L138.122 50.2334L138.122 51.2334L128.919 51.2334C128.367 51.2334 127.919 51.4573 127.919 51.7334ZM138.122 68.1445L129.419 68.1445C128.591 68.1445 127.919 67.473 127.919 66.6445C127.919 66.9207 128.367 67.1445 128.919 67.1445L138.122 67.1445L138.122 68.1445Z" fill="#3749A6" mask="url(#path-160-inside-28_1_4987)"/>
<rect x="0.25" y="-0.25" width="19.9043" height="3.34344" rx="0.75" transform="matrix(1 0 0 -1 82.4019 87.8994)" stroke="#3749A6" stroke-width="0.5"/>
<mask id="path-163-inside-29_1_4987" fill="white">
<path d="M83.9717 84.5557H101.237V75.5627C101.237 75.0104 100.789 74.5627 100.237 74.5627H84.9717C84.4194 74.5627 83.9717 75.0104 83.9717 75.5627V84.5557Z"/>
</mask>
<path d="M83.9717 84.5557H101.237H83.9717ZM101.237 74.5627H83.9717H101.237ZM84.9717 74.5627C84.1433 74.5627 83.4717 75.2343 83.4717 76.0627V84.5557H84.4717V75.5627C84.4717 75.0104 84.6955 74.5627 84.9717 74.5627ZM101.737 84.5557V76.0627C101.737 75.2343 101.065 74.5627 100.237 74.5627C100.513 74.5627 100.737 75.0104 100.737 75.5627V84.5557H101.737Z" fill="#3749A6" mask="url(#path-163-inside-29_1_4987)"/>
<rect x="32.1763" y="43.8154" width="73.7695" height="31.5162" fill="#CACACA"/>
<rect x="105.946" y="32.2852" width="23.5435" height="55.3455" fill="#CACACA"/>
<rect x="53.6152" y="147.838" width="19.9043" height="3.34344" rx="0.75" stroke="black" stroke-width="0.5"/>
<mask id="path-168-inside-30_1_4987" fill="white">
<path d="M54.9346 151.432H72.1998V160.425C72.1998 160.977 71.7521 161.425 71.1998 161.425H55.9346C55.3823 161.425 54.9346 160.977 54.9346 160.425V151.432Z"/>
</mask>
<path d="M54.9346 151.432H72.1998H54.9346ZM72.1998 161.425H54.9346H72.1998ZM55.9346 161.425C55.1061 161.425 54.4346 160.753 54.4346 159.925V151.432H55.4346V160.425C55.4346 160.977 55.6584 161.425 55.9346 161.425ZM72.6998 151.432V159.925C72.6998 160.753 72.0282 161.425 71.1998 161.425C71.4759 161.425 71.6998 160.977 71.6998 160.425V151.432H72.6998Z" fill="black" mask="url(#path-168-inside-30_1_4987)"/>
<rect x="0.25" y="-0.25" width="19.9043" height="3.34344" rx="0.75" transform="matrix(1 0 0 -1 54.1499 201.665)" stroke="black" stroke-width="0.5"/>
<mask id="path-171-inside-31_1_4987" fill="white">
<path d="M55.7197 198.321H72.9849V189.328C72.9849 188.776 72.5372 188.328 71.9849 188.328H56.7197C56.1674 188.328 55.7197 188.776 55.7197 189.328V198.321Z"/>
</mask>
<path d="M55.7197 198.321H72.9849H55.7197ZM72.9849 188.328H55.7197H72.9849ZM56.7197 188.328C55.8913 188.328 55.2197 189 55.2197 189.828V198.321H56.2197V189.328C56.2197 188.776 56.4436 188.328 56.7197 188.328ZM73.4849 198.321V189.828C73.4849 189 72.8134 188.328 71.9849 188.328C72.2611 188.328 72.4849 188.776 72.4849 189.328V198.321H73.4849Z" fill="black" mask="url(#path-171-inside-31_1_4987)"/>
<rect x="75.5894" y="147.838" width="19.9043" height="3.34344" rx="0.75" stroke="black" stroke-width="0.5"/>
<mask id="path-174-inside-32_1_4987" fill="white">
<path d="M76.9087 151.432H94.1739V160.425C94.1739 160.977 93.7262 161.425 93.1739 161.425H77.9087C77.3564 161.425 76.9087 160.977 76.9087 160.425V151.432Z"/>
</mask>
<path d="M76.9087 151.432H94.1739H76.9087ZM94.1739 161.425H76.9087H94.1739ZM77.9087 161.425C77.0803 161.425 76.4087 160.753 76.4087 159.925V151.432H77.4087V160.425C77.4087 160.977 77.6325 161.425 77.9087 161.425ZM94.6739 151.432V159.925C94.6739 160.753 94.0023 161.425 93.1739 161.425C93.45 161.425 93.6739 160.977 93.6739 160.425V151.432H94.6739Z" fill="black" mask="url(#path-174-inside-32_1_4987)"/>
<rect x="0.25" y="-0.25" width="19.9043" height="3.34344" rx="0.75" transform="matrix(1 0 0 -1 76.1235 201.665)" stroke="black" stroke-width="0.5"/>
<mask id="path-177-inside-33_1_4987" fill="white">
<path d="M77.6938 198.321H94.9591V189.328C94.9591 188.776 94.5113 188.328 93.9591 188.328H78.6938C78.1416 188.328 77.6938 188.776 77.6938 189.328V198.321Z"/>
</mask>
<path d="M77.6938 198.321H94.9591H77.6938ZM94.9591 188.328H77.6938H94.9591ZM78.6938 188.328C77.8654 188.328 77.1938 189 77.1938 189.828V198.321H78.1938V189.328C78.1938 188.776 78.4177 188.328 78.6938 188.328ZM95.4591 198.321V189.828C95.4591 189 94.7875 188.328 93.9591 188.328C94.2352 188.328 94.4591 188.776 94.4591 189.328V198.321H95.4591Z" fill="black" mask="url(#path-177-inside-33_1_4987)"/>
<rect x="97.563" y="147.838" width="19.9043" height="3.34344" rx="0.75" stroke="black" stroke-width="0.5"/>
<mask id="path-180-inside-34_1_4987" fill="white">
<path d="M98.8823 151.432H116.148V160.425C116.148 160.977 115.7 161.425 115.148 161.425H99.8823C99.33 161.425 98.8823 160.977 98.8823 160.425V151.432Z"/>
</mask>
<path d="M98.8823 151.432H116.148H98.8823ZM116.148 161.425H98.8823H116.148ZM99.8823 161.425C99.0539 161.425 98.3823 160.753 98.3823 159.925V151.432H99.3823V160.425C99.3823 160.977 99.6062 161.425 99.8823 161.425ZM116.648 151.432V159.925C116.648 160.753 115.976 161.425 115.148 161.425C115.424 161.425 115.648 160.977 115.648 160.425V151.432H116.648Z" fill="black" mask="url(#path-180-inside-34_1_4987)"/>
<rect x="157.491" y="163.212" width="19.4859" height="3.42391" rx="0.75" transform="rotate(90 157.491 163.212)" stroke="black" stroke-width="0.5"/>
<mask id="path-183-inside-35_1_4987" fill="white">
<path d="M153.817 164.499L153.817 181.41L144.615 181.41C144.063 181.41 143.615 180.962 143.615 180.41L143.615 165.499C143.615 164.947 144.063 164.499 144.615 164.499L153.817 164.499Z"/>
</mask>
<path d="M153.817 164.499L153.817 181.41L153.817 164.499ZM143.615 181.41L143.615 164.499L143.615 181.41ZM143.615 165.499C143.615 164.671 144.287 163.999 145.115 163.999L153.817 163.999L153.817 164.999L144.615 164.999C144.063 164.999 143.615 165.223 143.615 165.499ZM153.817 181.91L145.115 181.91C144.287 181.91 143.615 181.239 143.615 180.41C143.615 180.686 144.063 180.91 144.615 180.91L153.817 180.91L153.817 181.91Z" fill="black" mask="url(#path-183-inside-35_1_4987)"/>
<rect x="0.25" y="-0.25" width="19.9043" height="3.34344" rx="0.75" transform="matrix(1 0 0 -1 98.0981 201.665)" stroke="black" stroke-width="0.5"/>
<mask id="path-186-inside-36_1_4987" fill="white">
<path d="M99.6675 198.321H116.933V189.328C116.933 188.776 116.485 188.328 115.933 188.328H100.667C100.115 188.328 99.6675 188.776 99.6675 189.328V198.321Z"/>
</mask>
<path d="M99.6675 198.321H116.933H99.6675ZM116.933 188.328H99.6675H116.933ZM100.667 188.328C99.8391 188.328 99.1675 189 99.1675 189.828V198.321H100.167V189.328C100.167 188.776 100.391 188.328 100.667 188.328ZM117.433 198.321V189.828C117.433 189 116.761 188.328 115.933 188.328C116.209 188.328 116.433 188.776 116.433 189.328V198.321H117.433Z" fill="black" mask="url(#path-186-inside-36_1_4987)"/>
<rect x="47.8716" y="157.581" width="73.7695" height="31.5162" fill="#CACACA"/>
<rect x="121.641" y="146.051" width="23.5435" height="55.3455" fill="#CACACA"/>
<rect x="171.083" y="3.07422" width="18.05" height="7.68688" fill="#4E4E4E"/>
<rect x="503.83" y="2.30664" width="18.05" height="8.45557" fill="#696969"/>
<rect x="299.002" width="71.4152" height="13.8364" fill="#696969"/>
<path d="M173.045 106.464H144.008V99.9297" stroke="#4E4E4E"/>
<path d="M145.185 96.0866C148.717 88.3997 159.311 73.7178 173.437 76.4851" stroke="#4E4E4E" stroke-dasharray="8 8"/>
<path d="M173.437 117.61H144.4V124.144" stroke="#4E4E4E"/>
<path d="M145.577 127.987C149.109 135.674 159.703 150.355 173.829 147.588" stroke="#4E4E4E" stroke-dasharray="8 8"/>
<rect x="330.394" y="13.8359" width="6.27826" height="118.378" fill="#4E4E4E"/>
<rect x="510.109" y="9.22461" width="6.27826" height="331.305" fill="#4E4E4E"/>
<rect x="713.367" y="9.22461" width="6.27826" height="331.305" fill="#4E4E4E"/>
<path d="M464.591 132.215H226.148H218.954V247.411L242.935 261.354H441.295L464.591 242.764V132.215Z" stroke="#4E4E4E" stroke-width="5"/>
<path d="M327.254 260.97V134.137H339.026V260.97H327.254Z" stroke="#4E4E4E" stroke-width="3" stroke-dasharray="30 30"/>
<path d="M260.155 178.721V134.137H326.469V178.721H260.155Z" stroke="#4E4E4E" stroke-width="3"/>
<path d="M339.026 178.721V134.137H405.34V178.721H339.026Z" stroke="#4E4E4E" stroke-width="3"/>
<path d="M215.564 196.784H255.054V205.67" stroke="#4E4E4E"/>
<path d="M253.454 210.898C248.651 221.352 234.243 241.319 215.031 237.556" stroke="#4E4E4E" stroke-dasharray="8 8"/>
<path d="M464.057 196.784H424.567V205.67" stroke="#4E4E4E"/>
<path d="M426.167 210.898C430.97 221.352 445.379 241.319 464.59 237.556" stroke="#4E4E4E" stroke-dasharray="8 8"/>
<path d="M222.093 132.214C220.838 125.757 210.845 92.1139 206.005 76.0996" stroke="#4E4E4E"/>
<rect x="448.111" y="394.337" width="35.3152" height="138.364" fill="#D9D9D9"/>
<rect x="54.1499" y="394.337" width="35.3152" height="138.364" fill="#D9D9D9"/>
<path d="M34.5303 220.613L49.3834 332.842M45.5749 220.613L60.4281 332.842" stroke="#636363" stroke-width="8"/>
</svg>
