<svg width="20" height="22" viewBox="0 0 20 22" fill="none" xmlns="http://www.w3.org/2000/svg">
<path d="M9.6681 22C10.9869 22 12.1226 21.2034 12.6209 20.0664H6.71533C7.21364 21.2034 8.34935 22 9.6681 22Z" fill="white"/>
<path d="M16.3282 10.6503V9.23828C16.3282 6.23812 14.334 3.69527 11.6016 2.86473V1.93359C11.6016 0.86741 10.7342 0 9.66802 0C8.60184 0 7.73443 0.86741 7.73443 1.93359V2.86473C5.00204 3.69527 3.00786 6.23807 3.00786 9.23828V10.6503C3.00786 13.2857 2.00334 15.7846 0.179359 17.6867C0.000608813 17.8731 -0.0496217 18.1482 0.0516986 18.3857C0.153019 18.6232 0.386339 18.7773 0.644581 18.7773H18.6915C18.9497 18.7773 19.183 18.6232 19.2843 18.3857C19.3856 18.1482 19.3354 17.8731 19.1567 17.6867C17.3327 15.7846 16.3282 13.2856 16.3282 10.6503ZM10.3126 2.60941C10.1004 2.58895 9.88544 2.57812 9.66802 2.57812C9.4506 2.57812 9.23562 2.58895 9.02349 2.60941V1.93359C9.02349 1.5782 9.31262 1.28906 9.66802 1.28906C10.0234 1.28906 10.3126 1.5782 10.3126 1.93359V2.60941Z" fill="white"/>
<path d="M18.0467 9.23799C18.0467 9.59394 18.3353 9.88252 18.6912 9.88252C19.0472 9.88252 19.3358 9.59394 19.3358 9.23799C19.3358 6.65556 18.3301 4.2277 16.5041 2.40166C16.2524 2.14999 15.8443 2.14995 15.5926 2.40166C15.3409 2.65337 15.3409 3.06144 15.5926 3.31315C17.1752 4.89574 18.0467 6.99987 18.0467 9.23799Z" fill="white"/>
<path d="M0.644531 9.88249C1.00048 9.88249 1.28906 9.59391 1.28906 9.23796C1.28906 6.99989 2.16064 4.89575 3.74318 3.31317C3.99489 3.06146 3.99489 2.65338 3.74318 2.40167C3.49151 2.14996 3.08339 2.14996 2.83168 2.40167C1.00564 4.22772 0 6.65554 0 9.23796C0 9.59391 0.288578 9.88249 0.644531 9.88249Z" fill="white"/>
</svg>
