<svg width="13" height="13" viewBox="0 0 13 13" fill="none" xmlns="http://www.w3.org/2000/svg">
<path d="M11.05 6.5H13V11.7C13 12.0448 12.863 12.3754 12.6192 12.6192C12.3754 12.863 12.0448 13 11.7 13H11.05V6.5ZM9.75 1.3V13H1.3C0.955219 13 0.624558 12.863 0.380761 12.6192C0.136964 12.3754 0 12.0448 0 11.7V1.3C0 0.955219 0.136964 0.624558 0.380761 0.380761C0.624558 0.136964 0.955219 0 1.3 0H8.45C8.79478 0 9.12544 0.136964 9.36924 0.380761C9.61304 0.624558 9.75 0.955219 9.75 1.3ZM5.2 9.1H1.95V10.4H5.2V9.1ZM7.8 5.85H1.95V7.15H7.8V5.85ZM7.8 2.6H1.95V3.9H7.8V2.6Z" fill="#FFCC16"/>
</svg>
