<svg width="60" height="60" viewBox="0 0 60 60" fill="none" xmlns="http://www.w3.org/2000/svg">
<rect width="60" height="60" rx="8" fill="#20DB26"/>
<path d="M13.6748 23.0363V17.7742C13.6748 16.8012 14.048 15.9111 14.6582 15.2399C14.6582 15.2399 15.6198 14 17.449 14H17.7755C19.8513 14 21.5497 15.6984 21.5497 17.7742V23.0363H13.6748Z" fill="white"/>
<path d="M21.6603 25.4881H13.6049C12.9305 25.4881 12.3789 24.9365 12.3789 24.2621C12.3789 23.5878 12.9305 23.0361 13.6049 23.0361H21.6603C22.3346 23.0361 22.8863 23.5878 22.8863 24.2621C22.8863 24.9363 22.3346 25.4881 21.6603 25.4881Z" fill="white"/>
<path opacity="0.22" d="M21.6603 23.0363H21.5499V17.7742C21.5499 15.6984 19.8514 14 17.7756 14H17.4491C17.1639 14 16.8998 14.0302 16.6572 14.0811C18.3643 14.4412 19.656 15.9641 19.656 17.7742V23.0363H19.7664C20.4408 23.0363 20.9924 23.588 20.9924 24.2623C20.9924 24.9367 20.4408 25.4883 19.7664 25.4883H21.6603C22.3346 25.4883 22.8863 24.9367 22.8863 24.2623C22.8863 23.5881 22.3346 23.0363 21.6603 23.0363Z" fill="white"/>
<path d="M25.8794 23.0363V17.7742C25.8794 16.6445 26.3824 15.6265 27.1756 14.9334C27.1756 14.9334 28.1488 14 29.9803 14C32.0561 14 33.7546 15.6984 33.7546 17.7742V23.0363H25.8794Z" fill="white"/>
<path d="M33.8649 25.4881H25.8095C25.1351 25.4881 24.5835 24.9365 24.5835 24.2621C24.5835 23.5878 25.1351 23.0361 25.8095 23.0361H33.8649C34.5392 23.0361 35.0908 23.5878 35.0908 24.2621C35.0908 24.9363 34.5391 25.4881 33.8649 25.4881Z" fill="white"/>
<path d="M38.2402 23.0363V17.7742C38.2402 16.6442 38.7528 15.626 39.561 14.9328C39.561 14.9328 40.9478 14 42.4166 14C44.5307 14 46.2604 15.6984 46.2604 17.7742V23.0363H38.2402Z" fill="white"/>
<path d="M46.3954 25.4881H38.1464C37.4721 25.4881 36.9204 24.9365 36.9204 24.2621C36.9204 23.5878 37.4721 23.0361 38.1464 23.0361H46.3954C47.0697 23.0361 47.6214 23.5878 47.6214 24.2621C47.6214 24.9363 47.0697 25.4881 46.3954 25.4881Z" fill="white"/>
<path d="M12.379 21.3213H10.729V28.9687H12.379V21.3213Z" fill="#FBFBFB"/>
<path d="M24.5831 21.3213H22.9331V28.9687H24.5831V21.3213Z" fill="#FBFBFB"/>
<path d="M36.9207 21.3213H35.0908V28.9687H36.9207V21.3213Z" fill="#FBFBFB"/>
<path d="M49.2715 21.3213H47.6216V28.9687H49.2715V21.3213Z" fill="#FBFBFB"/>
<path d="M19.6138 40.0666V34.8045C19.6138 33.7217 20.0759 32.7415 20.8127 32.0516C20.8127 32.0516 21.6922 31.0303 23.388 31.0303H23.7146C25.7904 31.0303 27.4888 32.7287 27.4888 34.8045V40.0666H19.6138Z" fill="white"/>
<path d="M27.5993 42.5184H19.5439C18.8695 42.5184 18.3179 41.9667 18.3179 41.2924C18.3179 40.618 18.8695 40.0664 19.5439 40.0664H27.5992C28.2736 40.0664 28.8252 40.618 28.8252 41.2924C28.8253 41.9667 28.2736 42.5184 27.5993 42.5184Z" fill="white"/>
<path d="M31.9751 40.0666V34.8045C31.9751 33.5325 32.6246 32.4022 33.614 31.7176C33.614 31.7176 34.5195 31.0303 36.1515 31.0303C38.2657 31.0303 39.9953 32.7287 39.9953 34.8045V40.0666H31.9751Z" fill="white"/>
<path d="M40.1303 42.5184H31.8813C31.2069 42.5184 30.6553 41.9667 30.6553 41.2924C30.6553 40.618 31.2069 40.0664 31.8813 40.0664H40.1303C40.8046 40.0664 41.3562 40.618 41.3562 41.2924C41.3562 41.9667 40.8046 42.5184 40.1303 42.5184Z" fill="white"/>
<path d="M18.3179 38.3525H16.668V45.9999H18.3179V38.3525Z" fill="#FBFBFB"/>
<path d="M30.6555 38.3525H28.8257V45.9999H30.6555V38.3525Z" fill="#FBFBFB"/>
<path d="M43.0059 38.3525H41.356V45.9999H43.0059V38.3525Z" fill="#FBFBFB"/>
<path opacity="0.22" d="M33.8634 23.0363H33.753V17.7742C33.753 15.6984 32.0546 14 29.9788 14H29.6522C29.3671 14 29.103 14.0302 28.8604 14.0811C30.5674 14.4412 31.8591 15.9641 31.8591 17.7742V23.0363H31.9696C32.6439 23.0363 33.1956 23.588 33.1956 24.2623C33.1956 24.9367 32.6439 25.4883 31.9696 25.4883H33.8634C34.5378 25.4883 35.0894 24.9367 35.0894 24.2623C35.0894 23.5881 34.5376 23.0363 33.8634 23.0363Z" fill="white"/>
<path opacity="0.22" d="M46.3595 23.0363H46.2491V17.7742C46.2491 15.6984 44.5507 14 42.4749 14H42.1483C41.8631 14 41.5991 14.0302 41.3564 14.0811C43.0635 14.4412 44.3552 15.9641 44.3552 17.7742V23.0363H44.4657C45.14 23.0363 45.6916 23.588 45.6916 24.2623C45.6916 24.9367 45.14 25.4883 44.4657 25.4883H46.3595C47.0339 25.4883 47.5855 24.9367 47.5855 24.2623C47.5855 23.5881 47.0338 23.0363 46.3595 23.0363Z" fill="white"/>
<path opacity="0.22" d="M40.1291 40.0666H40.0186V34.8045C40.0186 32.7287 38.3202 31.0303 36.2444 31.0303H35.9178C35.6327 31.0303 35.3686 31.0605 35.126 31.1113C36.8331 31.4715 38.1248 32.9944 38.1248 34.8045V40.0666H38.2352C38.9095 40.0666 39.4612 40.6183 39.4612 41.2926C39.4612 41.9669 38.9095 42.5186 38.2352 42.5186H40.1291C40.8034 42.5186 41.355 41.9669 41.355 41.2926C41.355 40.6183 40.8033 40.0666 40.1291 40.0666Z" fill="white"/>
<path opacity="0.22" d="M27.5993 40.0666H27.4888V34.8045C27.4888 32.7287 25.7904 31.0303 23.7146 31.0303H23.388C23.1029 31.0303 22.8388 31.0605 22.5962 31.1113C24.3033 31.4715 25.595 32.9944 25.595 34.8045V40.0666H25.7054C26.3798 40.0666 26.9314 40.6183 26.9314 41.2926C26.9314 41.9669 26.3798 42.5186 25.7054 42.5186H27.5993C28.2736 42.5186 28.8252 41.9669 28.8252 41.2926C28.8252 40.6183 28.2735 40.0666 27.5993 40.0666Z" fill="white"/>
</svg>
