<svg width="42" height="42" viewBox="0 0 42 42" fill="none" xmlns="http://www.w3.org/2000/svg">
<rect width="42" height="42" rx="8" fill="#FFCC16"/>
<path d="M21.0001 33.5L7.36377 26.6818L12.932 23.8409L7.36377 21L12.932 18.1591L7.36377 15.3182L21.0001 8.5L34.6365 15.3182L29.0683 18.1591L34.6365 21L29.0683 23.8409L34.6365 26.6818L21.0001 33.5ZM12.3638 26.6818L21.1138 31.1136L29.7501 26.6818L26.5683 25.0909L21.0001 27.8182L15.432 24.9773L12.3638 26.6818ZM12.3638 21L21.1138 25.4318L29.7501 21L26.5683 19.4091L21.0001 22.25L15.432 19.4091L12.3638 21ZM12.3638 15.3182L21.1138 19.75L29.7501 15.3182L21.0001 11L12.3638 15.3182Z" fill="white"/>
</svg>
